<svg width="42" height="42" viewBox="0 0 42 42" fill="none" xmlns="http://www.w3.org/2000/svg">
<path d="M13.125 7.8782V10.5032H38.0625V15.6995L35.1504 24.9407H12.2991L9.01786 1.3125H1.3125V3.9375H6.73214L10.0134 27.5657H37.0755L40.6875 16.1032V7.8782H13.125ZM14.5182 30.2157C13.1263 30.2173 11.7919 30.7709 10.8077 31.7552C9.82344 32.7394 9.2698 34.0738 9.26822 35.4657C9.26822 36.8581 9.82134 38.1935 10.8059 39.178C11.7905 40.1626 13.1258 40.7157 14.5182 40.7157C15.9106 40.7157 17.246 40.1626 18.2305 39.178C19.2151 38.1935 19.7682 36.8581 19.7682 35.4657C19.7667 34.0738 19.213 32.7394 18.2288 31.7551C17.2446 30.7709 15.9101 30.2173 14.5182 30.2157ZM14.5182 38.0907C13.999 38.0907 13.4915 37.9368 13.0598 37.6483C12.6282 37.3599 12.2917 36.9499 12.093 36.4703C11.8944 35.9906 11.8424 35.4628 11.9437 34.9536C12.0449 34.4444 12.295 33.9767 12.6621 33.6096C13.0292 33.2425 13.4969 32.9924 14.0061 32.8912C14.5153 32.7899 15.0431 32.8419 15.5228 33.0405C16.0024 33.2392 16.4124 33.5757 16.7008 34.0073C16.9893 34.439 17.1432 34.9465 17.1432 35.4657C17.1424 36.1617 16.8656 36.8289 16.3735 37.321C15.8814 37.8131 15.2142 38.0899 14.5182 38.0907ZM32.8932 30.2157C31.5013 30.2173 30.1669 30.7709 29.1827 31.7552C28.1984 32.7394 27.6448 34.0738 27.6432 35.4657C27.6432 36.8581 28.1963 38.1935 29.1809 39.178C30.1655 40.1626 31.5008 40.7157 32.8932 40.7157C34.2856 40.7157 35.621 40.1626 36.6055 39.178C37.5901 38.1935 38.1432 36.8581 38.1432 35.4657C38.1417 34.0738 37.588 32.7394 36.6038 31.7551C35.6196 30.7709 34.2851 30.2173 32.8932 30.2157ZM32.8932 38.0907C32.374 38.0907 31.8665 37.9368 31.4348 37.6483C31.0032 37.3599 30.6667 36.9499 30.468 36.4703C30.2694 35.9906 30.2174 35.4628 30.3187 34.9536C30.4199 34.4444 30.67 33.9767 31.0371 33.6096C31.4042 33.2425 31.8719 32.9924 32.3811 32.8912C32.8903 32.7899 33.4181 32.8419 33.8978 33.0405C34.3774 33.2392 34.7874 33.5757 35.0758 34.0073C35.3643 34.439 35.5182 34.9465 35.5182 35.4657C35.5174 36.1617 35.2406 36.8289 34.7485 37.321C34.2564 37.8131 33.5892 38.0899 32.8932 38.0907Z" fill="#005CA6"/>
</svg>
