<svg width="60" height="60" viewBox="0 0 60 60" fill="none" xmlns="http://www.w3.org/2000/svg">
<path d="M44.2222 45.297C45.4491 45.297 46.4924 44.8708 47.3522 44.0184C48.2119 43.1661 48.6409 42.1294 48.6389 40.9084C48.6389 39.6893 48.21 38.6536 47.3522 37.8012C46.4944 36.9488 45.451 36.5217 44.2222 36.5197C42.9954 36.5197 41.953 36.9469 41.0952 37.8012C40.2374 38.6555 39.8075 39.6912 39.8056 40.9084C39.8056 42.1274 40.2354 43.1641 41.0952 44.0184C41.955 44.8728 42.9973 45.2989 44.2222 45.297ZM44.2222 54.0742C45.6944 54.0742 47.0685 53.7329 48.3444 53.0502C49.6204 52.3676 50.6755 51.4167 51.5097 50.1976C50.381 49.515 49.2032 49.0156 47.9764 48.6996C46.7495 48.3837 45.4981 48.2247 44.2222 48.2227C42.9463 48.2227 41.6949 48.3817 40.4681 48.6996C39.2412 49.0176 38.0634 49.5169 36.9347 50.1976C37.769 51.4167 38.8241 52.3676 40.1 53.0502C41.3759 53.7329 42.75 54.0742 44.2222 54.0742ZM7.75528 50.812C6.44794 50.812 5.32906 50.3488 4.39861 49.4223C3.4662 48.4978 3 47.386 3 46.0869V8.72509C3 7.42606 3.4662 6.31427 4.39861 5.38973C5.32906 4.46324 6.44794 4 7.75528 4H45.3558C46.6632 4 47.7821 4.46324 48.7125 5.38973C49.6449 6.31427 50.1111 7.42606 50.1111 8.72509V23.6932C50.1111 24.1067 49.9698 24.4539 49.6871 24.7348C49.4044 25.0157 49.0541 25.1561 48.6359 25.1561C48.2198 25.1561 47.8704 25.0157 47.5877 24.7348C47.307 24.4539 47.1667 24.1067 47.1667 23.6932V8.72509C47.1667 8.27647 46.9782 7.86394 46.6013 7.4875C46.2225 7.113 45.8073 6.92575 45.3558 6.92575H7.75528C7.3038 6.92575 6.88863 7.113 6.50978 7.4875C6.13289 7.86394 5.94444 8.27647 5.94444 8.72509V46.0869C5.94444 46.5356 6.13289 46.9481 6.50978 47.3245C6.88863 47.699 7.3038 47.8863 7.75528 47.8863H22.8191C23.2352 47.8863 23.5846 48.0267 23.8673 48.3076C24.1499 48.5885 24.2913 48.9366 24.2913 49.3521C24.2913 49.7656 24.1499 50.1128 23.8673 50.3937C23.5846 50.6726 23.2352 50.812 22.8191 50.812H7.75528ZM5.94444 44.981V47.8863V6.92575V25.3755V25.1561V44.981ZM13.3056 38.4361C13.3056 38.8516 13.4469 39.1987 13.7296 39.4777C14.0103 39.7566 14.3597 39.896 14.7778 39.896H23.4933C23.9095 39.896 24.2589 39.7556 24.5416 39.4747C24.8242 39.1939 24.9656 38.8467 24.9656 38.4332C24.9656 38.0177 24.8242 37.6696 24.5416 37.3887C24.2589 37.1098 23.9095 36.9703 23.4933 36.9703H14.7778C14.3597 36.9703 14.0103 37.1107 13.7296 37.3916C13.4489 37.6725 13.3075 38.0206 13.3056 38.4361ZM13.3056 27.406C13.3056 27.8215 13.4469 28.1696 13.7296 28.4505C14.0122 28.7294 14.3616 28.8689 14.7778 28.8689H33.8578C34.2759 28.8689 34.6263 28.7285 34.9089 28.4476C35.1916 28.1667 35.3329 27.8185 35.3329 27.4031C35.3329 26.9876 35.1916 26.6404 34.9089 26.3615C34.6263 26.0826 34.2769 25.9431 33.8607 25.9431H14.7778C14.3597 25.9431 14.0103 26.0836 13.7296 26.3645C13.4469 26.6453 13.3056 26.9935 13.3056 27.4089M13.3056 16.3789C13.3056 16.7943 13.4469 17.1425 13.7296 17.4234C14.0103 17.7023 14.3597 17.8417 14.7778 17.8417H38.3333C38.7514 17.8417 39.1009 17.7013 39.3816 17.4204C39.6623 17.1396 39.8036 16.7914 39.8056 16.3759C39.8056 15.9605 39.6642 15.6133 39.3816 15.3344C39.0989 15.0554 38.7495 14.916 38.3333 14.916H14.7778C14.3597 14.916 14.0103 15.0564 13.7296 15.3373C13.4469 15.6182 13.3056 15.9654 13.3056 16.3789ZM44.2222 57C40.9421 57 38.1586 55.8648 35.8718 53.5944C33.5849 51.324 32.4425 48.5582 32.4444 45.297C32.4444 42.0397 33.5869 39.2748 35.8718 37.0025C38.1567 34.7302 40.9401 33.594 44.2222 33.594C47.5023 33.594 50.2858 34.7302 52.5727 37.0025C54.8595 39.2748 56.002 42.0397 56 45.297C56 48.5582 54.8576 51.324 52.5727 53.5944C50.2839 55.8648 47.5004 57 44.2222 57Z" fill="#005CA6"/>
</svg>
