<svg width="60" height="60" viewBox="0 0 60 60" fill="none" xmlns="http://www.w3.org/2000/svg">
<path d="M28.7461 55.9968V52.747H50.4286C50.9749 52.747 51.4469 52.5801 51.8446 52.2465C52.2445 51.9128 52.4444 51.4752 52.4444 50.9336V28.549C52.4444 22.461 50.1871 17.3772 45.6726 13.2977C41.1558 9.21592 35.7649 7.17505 29.5 7.17505C23.2351 7.17505 17.8442 9.21484 13.3274 13.2944C8.81285 17.3762 6.55556 22.461 6.55556 28.549V46.9981H4.91667C3.57715 46.9981 2.42228 46.5485 1.45206 45.6494C0.484019 44.7525 0 43.6389 0 42.3086V36.186C0 35.2154 0.317944 34.3542 0.953833 33.6024C1.59191 32.8506 2.36656 32.2386 3.27778 31.7663L3.3335 27.7723C3.3925 24.3816 4.13546 21.2402 5.56239 18.3479C6.98931 15.4577 8.8948 12.9413 11.2788 10.7986C13.6651 8.65804 16.4217 6.98981 19.5487 5.79389C22.6779 4.59796 25.995 4 29.5 4C33.005 4 36.3189 4.59796 39.4415 5.79389C42.5641 6.98981 45.3098 8.65479 47.6786 10.7888C50.0495 12.925 51.9451 15.4382 53.3655 18.3284C54.7859 21.2207 55.5529 24.3621 55.6665 27.7528L55.7222 31.6688C56.5919 32.0739 57.3567 32.6177 58.0167 33.3002C58.6722 33.9848 59 34.8059 59 35.7635V42.7993C59 43.7591 58.6711 44.5802 58.0134 45.2627C57.3578 45.9473 56.5941 46.4911 55.7222 46.8941V50.9368C55.7222 52.3494 55.2065 53.5464 54.1751 54.5278C53.1437 55.5093 51.8949 56 50.4286 56L28.7461 55.9968ZM20.9286 34.9966C20.2512 34.9966 19.6612 34.7691 19.1586 34.3141C18.656 33.8591 18.4047 33.2958 18.4047 32.6242C18.4047 31.9526 18.656 31.3785 19.1586 30.9018C19.6612 30.4252 20.2512 30.1869 20.9286 30.1869C21.606 30.1869 22.1949 30.4252 22.6953 30.9018C23.1979 31.3785 23.4492 31.9526 23.4492 32.6242C23.4492 33.2958 23.1979 33.8591 22.6953 34.3141C22.1927 34.7691 21.6027 34.9966 20.9253 34.9966M38.0714 34.9966C37.394 34.9966 36.8051 34.7691 36.3047 34.3141C35.8021 33.8591 35.5508 33.2958 35.5508 32.6242C35.5508 31.9526 35.8021 31.3785 36.3047 30.9018C36.8073 30.4252 37.3973 30.1869 38.0747 30.1869C38.7499 30.1869 39.3388 30.4252 39.8414 30.9018C40.344 31.3785 40.5953 31.9526 40.5953 32.6242C40.5953 33.2958 40.344 33.8591 39.8414 34.3141C39.3388 34.7691 38.7488 34.9966 38.0714 34.9966ZM12.1835 29.8359C11.8863 24.9699 13.4662 20.822 16.9232 17.3924C20.3823 13.9628 24.6292 12.248 29.6639 12.248C33.8966 12.248 37.6464 13.5078 40.9132 16.0275C44.1801 18.545 46.1751 21.8544 46.8984 25.9556C42.5565 25.9015 38.527 24.803 34.81 22.6603C31.0952 20.5198 28.2435 17.5408 26.255 13.7234C25.464 17.4737 23.8196 20.7603 21.3219 23.5833C18.8243 26.4063 15.7781 28.4905 12.1835 29.8359Z" fill="#005CA6"/>
</svg>
