<svg width="60" height="60" viewBox="0 0 60 60" fill="none" xmlns="http://www.w3.org/2000/svg">
<path d="M30 37.5C34.1421 37.5 37.5 34.1421 37.5 30C37.5 25.8579 34.1421 22.5 30 22.5C25.8579 22.5 22.5 25.8579 22.5 30C22.5 34.1421 25.8579 37.5 30 37.5Z" stroke="#005CA6" stroke-width="2.75"/>
<path d="M34.4124 5.38C33.4949 5 32.3299 5 29.9999 5C27.6699 5 26.5049 5 25.5874 5.38C24.9804 5.63128 24.4288 5.99974 23.9642 6.46431C23.4996 6.92888 23.1312 7.48045 22.8799 8.0875C22.6499 8.645 22.5574 9.2975 22.5224 10.245C22.5068 10.93 22.3174 11.5997 21.9719 12.1914C21.6265 12.7831 21.1363 13.2773 20.5474 13.6275C19.9496 13.9626 19.2765 14.1403 18.5912 14.1438C17.906 14.1473 17.2311 13.9765 16.6299 13.6475C15.7899 13.2025 15.1824 12.9575 14.5799 12.8775C13.2657 12.7047 11.9367 13.0608 10.8849 13.8675C10.0999 14.475 9.51491 15.4825 8.34991 17.5C7.18491 19.5175 6.59991 20.525 6.47241 21.5125C6.38649 22.1636 6.42971 22.8253 6.59957 23.4597C6.76944 24.0942 7.06263 24.6889 7.46241 25.21C7.83241 25.69 8.34991 26.0925 9.15241 26.5975C10.3349 27.34 11.0949 28.605 11.0949 30C11.0949 31.395 10.3349 32.66 9.15241 33.4C8.34991 33.9075 7.82991 34.31 7.46241 34.79C7.06263 35.3111 6.76944 35.9058 6.59957 36.5403C6.42971 37.1747 6.38649 37.8364 6.47241 38.4875C6.60241 39.4725 7.18491 40.4825 8.34741 42.5C9.51491 44.5175 10.0974 45.525 10.8849 46.1325C11.406 46.5323 12.0007 46.8255 12.6352 46.9953C13.2696 47.1652 13.9313 47.2084 14.5824 47.1225C15.1824 47.0425 15.7899 46.7975 16.6299 46.3525C17.2311 46.0235 17.906 45.8527 18.5912 45.8562C19.2765 45.8597 19.9496 46.0374 20.5474 46.3725C21.7549 47.0725 22.4724 48.36 22.5224 49.755C22.5574 50.705 22.6474 51.355 22.8799 51.9125C23.1312 52.5195 23.4996 53.0711 23.9642 53.5357C24.4288 54.0003 24.9804 54.3687 25.5874 54.62C26.5049 55 27.6699 55 29.9999 55C32.3299 55 33.4949 55 34.4124 54.62C35.0195 54.3687 35.571 54.0003 36.0356 53.5357C36.5002 53.0711 36.8686 52.5195 37.1199 51.9125C37.3499 51.355 37.4424 50.705 37.4774 49.755C37.5274 48.36 38.2449 47.07 39.4524 46.3725C40.0502 46.0374 40.7233 45.8597 41.4086 45.8562C42.0938 45.8527 42.7688 46.0235 43.3699 46.3525C44.2099 46.7975 44.8174 47.0425 45.4174 47.1225C46.0685 47.2084 46.7302 47.1652 47.3646 46.9953C47.9991 46.8255 48.5938 46.5323 49.1149 46.1325C49.9024 45.5275 50.4849 44.5175 51.6499 42.5C52.8149 40.4825 53.3999 39.475 53.5274 38.4875C53.6133 37.8364 53.5701 37.1747 53.4002 36.5403C53.2304 35.9058 52.9372 35.3111 52.5374 34.79C52.1674 34.31 51.6499 33.9075 50.8474 33.4025C50.2617 33.0465 49.7762 32.5475 49.4364 31.9523C49.0966 31.3571 48.9137 30.6853 48.9049 30C48.9049 28.605 49.6649 27.34 50.8474 26.6C51.6499 26.0925 52.1699 25.69 52.5374 25.21C52.9372 24.6889 53.2304 24.0942 53.4002 23.4597C53.5701 22.8253 53.6133 22.1636 53.5274 21.5125C53.3974 20.5275 52.8149 19.5175 51.6524 17.5C50.4849 15.4825 49.9024 14.475 49.1149 13.8675C48.5938 13.4677 47.9991 13.1745 47.3646 13.0047C46.7302 12.8348 46.0685 12.7916 45.4174 12.8775C44.8174 12.9575 44.2099 13.2025 43.3674 13.6475C42.7666 13.976 42.0921 14.1466 41.4073 14.1431C40.7225 14.1396 40.0499 13.9622 39.4524 13.6275C38.8635 13.2773 38.3733 12.7831 38.0279 12.1914C37.6824 11.5997 37.493 10.93 37.4774 10.245C37.4424 9.295 37.3524 8.645 37.1199 8.0875C36.8686 7.48045 36.5002 6.92888 36.0356 6.46431C35.571 5.99974 35.0195 5.63128 34.4124 5.38Z" stroke="#005CA6" stroke-width="2.75"/>
</svg>
