<svg width="60" height="60" viewBox="0 0 60 60" fill="none" xmlns="http://www.w3.org/2000/svg">
<path d="M15 25H25" stroke="#005CA6" stroke-width="2.75" stroke-linecap="round" stroke-linejoin="round"/>
<path d="M54.995 31.25C54.995 31.0575 55 29.9175 54.995 29.8375C54.905 28.585 53.8325 27.5875 52.4825 27.505C52.395 27.5 52.2925 27.5 52.0825 27.5H45.5775C41.115 27.5 37.5 30.8575 37.5 35C37.5 39.1425 41.1175 42.5 45.575 42.5H52.0825C52.2925 42.5 52.395 42.5 52.4825 42.495C53.8325 42.4125 54.9075 41.415 54.995 40.1625C55 40.0825 55 38.9425 55 38.75" stroke="#005CA6" stroke-width="2.75" stroke-linecap="round"/>
<path d="M45 37.5C46.3807 37.5 47.5 36.3807 47.5 35C47.5 33.6193 46.3807 32.5 45 32.5C43.6193 32.5 42.5 33.6193 42.5 35C42.5 36.3807 43.6193 37.5 45 37.5Z" fill="#005CA6"/>
<path d="M25 54.9999H32.5C41.9275 54.9999 46.6425 54.9998 49.57 52.0698C51.5925 50.0498 52.22 47.1798 52.4125 42.4998M52.4125 27.4998C52.2175 22.8198 51.5925 19.9498 49.57 17.9298C46.6425 14.9998 41.9275 14.9998 32.5 14.9998H25C15.5725 14.9998 10.8575 14.9998 7.93 17.9298C5 20.8573 5 25.5723 5 34.9998C5 44.4273 5 49.1423 7.93 52.0698C9.5625 53.7048 11.75 54.4273 15 54.7448M15 14.9998L24.3375 8.80735C25.6507 7.9532 27.1835 7.49854 28.75 7.49854C30.3165 7.49854 31.8493 7.9532 33.1625 8.80735L42.5 14.9998" stroke="#005CA6" stroke-width="2.75" stroke-linecap="round"/>
</svg>
